# xmcd
# 
# Track frame offsets:
#     150
#     10407
#     24698
#     38493
#     51993
#     75620
#     87830
#     98903
#     115949
#     131325
#     142922
#     155421
# 
# Disc length: 2228
# 
# Revision: 0
# Processed by: cddbd v1.5.2PL0 Copyright (c) Steve Scherf et al.
# Submitted via: fre:ac v1.0.17
# 
DISCID=8e08b20c
DTITLE=Various Artist - Country Fest
DYEAR=0
DGENRE=Country
TTITLE0=Aaron Schoroeder - Stuck on you
TTITLE1=Jonh Denver - Country Roads
TTITLE2=J. Mayo Willlians - Corina Corina
TTITLE3=Lou Handman - Are You Lonesome Tonight
TTITLE4=Paul Simon - The Boxer
TTITLE5=Buckram Anderam - Only You
TTITLE6=Gerrard Mardsen - Ferry Cross Mersey
TTITLE7=Country Roads - Mrs Robison
TTITLE8=Ben King - Stand By Me
TTITLE9=Buddy Holly - That Will Be The Day
TTITLE10=Ottis Blackwell - Return To Sender
TTITLE11=Boudelaux - All Have to do is Dream
EXTD=
EXTT0=
EXTT1=
EXTT2=
EXTT3=
EXTT4=
EXTT5=
EXTT6=
EXTT7=
EXTT8=
EXTT9=
EXTT10=
EXTT11=
PLAYORDER=
